<svg width="114" height="41" viewBox="0 0 114 41" fill="none" xmlns="http://www.w3.org/2000/svg">
<path d="M44 26.0547C44 26.8672 43.7422 27.9531 43.2266 29.3125C41.8984 32.875 39.3516 35.6172 35.5859 37.5391C32.2891 39.2266 28.5781 40.0703 24.4531 40.0703C18.875 40.0703 14.6641 38.5859 11.8203 35.6172C9.24219 32.9297 7.95312 29.25 7.95312 24.5781C7.95312 20.8438 8.83594 16.9141 10.6016 12.7891C11.8359 9.94531 13.0938 7.71094 14.375 6.08594C9.90625 6.58594 5.90625 8.23438 2.375 11.0312C2.1875 11.2344 2.0625 11.2188 2 10.9844C1.67188 8.89062 1.24219 5.48437 0.710938 0.765625C0.726562 0.671875 0.820312 0.59375 0.992188 0.53125C13.3672 1.57813 26.25 2.10156 39.6406 2.10156C39.9062 2.10156 40 2.26562 39.9219 2.59375C38.2812 9.04688 37.2734 14.2109 36.8984 18.0859C35.7734 17.9141 34.3203 17.625 32.5391 17.2188C31.6953 16.9375 31.2734 16.5078 31.2734 15.9297C31.2734 15.6172 31.3906 14.9219 31.625 13.8438C31.875 12.75 32 11.9375 32 11.4062C32 10.6406 31.7578 10.1016 31.2734 9.78906C28.4766 7.94531 26.2578 6.90625 24.6172 6.67188C21.7891 12 20.375 17.8984 20.375 24.3672C20.375 27.9609 20.9141 30.9141 21.9922 33.2266C23.1484 35.7422 24.7422 37 26.7734 37C28.2891 37 29.9531 36.3984 31.7656 35.1953C33.4531 34.0547 34.2969 33.1328 34.2969 32.4297C34.2969 32.1484 34.2031 32.0078 34.0156 32.0078C31.6562 31.6484 29.6328 30.875 27.9453 29.6875C25.9453 28.2969 24.9453 26.6094 24.9453 24.625C24.9453 23.5625 25.6484 22.6875 27.0547 22C28.4766 21.3125 30.3984 20.9688 32.8203 20.9688C33.8984 20.9688 35.1641 21.0625 36.6172 21.25C41.5391 21.9062 44 23.5078 44 26.0547ZM78.5469 22.5156C78.5469 23.3125 78.5156 24.25 78.4531 25.3281C78.4531 25.5156 78.375 25.5859 78.2188 25.5391C75.5625 24.9453 71.2109 24.1562 65.1641 23.1719C59.7891 22.3125 56.9766 21.8828 56.7266 21.8828C56.3672 21.8828 56.1875 23.3516 56.1875 26.2891C56.1875 29.9922 57 32.7578 58.625 34.5859C59.8594 35.9766 61.4453 36.7188 63.3828 36.8125C64.4766 36.8594 65.4844 36.6953 66.4062 36.3203C66.7656 36.1797 66.9453 36.0391 66.9453 35.8984C66.9453 35.8047 66.8516 35.7266 66.6641 35.6641C64.6172 35.2891 62.9453 34.5312 61.6484 33.3906C60.3516 32.2344 59.7031 30.8594 59.7031 29.2656C59.7031 28.2656 60.2656 27.4609 61.3906 26.8516C62.5312 26.2266 64.0781 25.9141 66.0312 25.9141C67.375 25.9141 68.7969 26.0547 70.2969 26.3359C74.3281 27.1172 76.3438 28.7344 76.3438 31.1875C76.3438 31.875 76.1562 32.5781 75.7812 33.2969C74.7344 35.2656 73.4375 36.6719 71.8906 37.5156C69.6406 38.7344 66.2188 39.3438 61.625 39.3438C56.3438 39.3438 52.125 37.3906 48.9688 33.4844C46.2656 30.1562 44.9141 26.3984 44.9141 22.2109C44.9141 14.4766 51.2344 10.6094 63.875 10.6094C71.2031 10.6094 75.7109 12.4453 77.3984 16.1172C78.1641 17.7891 78.5469 19.9219 78.5469 22.5156ZM69.5703 17.125C69.5703 16.25 69 15.5391 67.8594 14.9922C66.7188 14.4297 65.2109 14.1484 63.3359 14.1484C61.1484 14.1484 59.25 14.3516 57.6406 14.7578C55.75 15.2266 54.8047 15.8594 54.8047 16.6562C54.8047 18.6719 58.0312 19.6797 64.4844 19.6797C67.875 19.6797 69.5703 18.8281 69.5703 17.125ZM113.281 22.5156C113.281 23.3125 113.25 24.25 113.188 25.3281C113.188 25.5156 113.109 25.5859 112.953 25.5391C110.297 24.9453 105.945 24.1562 99.8984 23.1719C94.5234 22.3125 91.7109 21.8828 91.4609 21.8828C91.1016 21.8828 90.9219 23.3516 90.9219 26.2891C90.9219 29.9922 91.7344 32.7578 93.3594 34.5859C94.5938 35.9766 96.1797 36.7188 98.1172 36.8125C99.2109 36.8594 100.219 36.6953 101.141 36.3203C101.5 36.1797 101.68 36.0391 101.68 35.8984C101.68 35.8047 101.586 35.7266 101.398 35.6641C99.3516 35.2891 97.6797 34.5312 96.3828 33.3906C95.0859 32.2344 94.4375 30.8594 94.4375 29.2656C94.4375 28.2656 95 27.4609 96.125 26.8516C97.2656 26.2266 98.8125 25.9141 100.766 25.9141C102.109 25.9141 103.531 26.0547 105.031 26.3359C109.062 27.1172 111.078 28.7344 111.078 31.1875C111.078 31.875 110.891 32.5781 110.516 33.2969C109.469 35.2656 108.172 36.6719 106.625 37.5156C104.375 38.7344 100.953 39.3438 96.3594 39.3438C91.0781 39.3438 86.8594 37.3906 83.7031 33.4844C81 30.1562 79.6484 26.3984 79.6484 22.2109C79.6484 14.4766 85.9688 10.6094 98.6094 10.6094C105.938 10.6094 110.445 12.4453 112.133 16.1172C112.898 17.7891 113.281 19.9219 113.281 22.5156ZM104.305 17.125C104.305 16.25 103.734 15.5391 102.594 14.9922C101.453 14.4297 99.9453 14.1484 98.0703 14.1484C95.8828 14.1484 93.9844 14.3516 92.375 14.7578C90.4844 15.2266 89.5391 15.8594 89.5391 16.6562C89.5391 18.6719 92.7656 19.6797 99.2188 19.6797C102.609 19.6797 104.305 18.8281 104.305 17.125Z" fill="#1F1F1F"/>
</svg>
