<svg width="21" height="16" viewBox="0 0 21 16" fill="none" xmlns="http://www.w3.org/2000/svg">
<path fill-rule="evenodd" clip-rule="evenodd" d="M20.5607 6.93934C21.1464 7.52513 21.1464 8.47487 20.5607 9.06066L14.5607 15.0607C13.9749 15.6464 13.0251 15.6464 12.4393 15.0607C11.8536 14.4749 11.8536 13.5251 12.4393 12.9393L17.3787 8L12.4393 3.06066C11.8536 2.47487 11.8536 1.52513 12.4393 0.93934C13.0251 0.353553 13.9749 0.353553 14.5607 0.93934L20.5607 6.93934Z" fill="#1F1F1F"/>
<path fill-rule="evenodd" clip-rule="evenodd" d="M21 8C21 8.82843 20.3284 9.5 19.5 9.5L1.5 9.5C0.671571 9.5 -3.64047e-07 8.82843 -3.27835e-07 8C-2.91624e-07 7.17157 0.671571 6.5 1.5 6.5L19.5 6.5C20.3284 6.5 21 7.17157 21 8Z" fill="#1F1F1F"/>
</svg>
